<svg width="390" height="164" viewBox="0 0 390 164" fill="none" xmlns="http://www.w3.org/2000/svg">
    <path d="M49.3418 76.4226C49.9229 76.9083 50.1701 77.4504 50.0877 78.0403C50.014 78.5781 49.7495 79.1202 49.2941 79.658L43.9509 86.6232C43.3611 87.3822 42.7929 87.7552 42.2551 87.7552C41.8214 87.7552 41.34 87.5383 40.8066 87.1089C38.92 85.5433 36.9813 84.3419 34.9906 83.5049C33 82.6678 30.8748 82.2472 28.6066 82.2472C26.4468 82.2472 24.6859 82.6678 23.3284 83.5049C21.971 84.3419 21.199 85.4348 21.0082 86.7837C20.865 87.8115 21.0732 88.6356 21.637 89.2557C22.1965 89.8759 23.0943 90.4311 24.3216 90.9168C25.549 91.4026 27.3662 91.9447 29.7646 92.5345C33.8327 93.5624 37.1114 94.8158 39.6052 96.3034C42.099 97.7866 43.8641 99.6385 44.9094 101.85C45.9502 104.067 46.2495 106.764 45.8071 109.948C45.2823 113.729 43.8945 116.995 41.6479 119.749C39.4014 122.503 36.4652 124.607 32.8308 126.068C29.2008 127.525 25.1413 128.254 20.6612 128.254C16.5584 128.254 12.8633 127.647 9.57584 126.432C6.28839 125.218 3.41728 123.531 0.966878 121.371C0.246936 120.725 -0.0696436 120.1 0.0127594 119.506C0.0864884 118.969 0.385718 118.374 0.910495 117.724L6.05854 111.001C6.65704 110.19 7.25121 109.787 7.84538 109.787C8.2227 109.787 8.7041 110.03 9.28092 110.516C11.0157 112.029 13.0324 113.231 15.3397 114.12C17.647 115.009 20.015 115.456 22.4437 115.456C25.0372 115.456 27.0756 115.039 28.5719 114.202C30.0638 113.365 30.9095 112.246 31.1047 110.841C31.2392 109.87 31.0266 109.059 30.4715 108.412C29.912 107.766 28.9666 107.185 27.6351 106.673C26.3036 106.161 24.3303 105.58 21.7238 104.93C17.8638 103.958 14.7369 102.77 12.3385 101.369C9.94014 99.9638 8.22269 98.1422 7.18615 95.9043C6.1496 93.6621 5.85902 90.8951 6.31441 87.6033C6.83918 83.8258 8.20967 80.5731 10.4259 77.8451C12.6421 75.1215 15.4785 73.0397 18.9481 71.6085C22.4133 70.1773 26.2516 69.4617 30.4628 69.4617C37.9225 69.4573 44.2111 71.782 49.3418 76.4226Z" fill="white"/>
    <path d="M102.63 128.254H92.8332C92.1306 128.254 91.6275 128.081 91.3283 127.729C91.0247 127.378 90.9249 126.853 91.0203 126.151L93.7483 106.552C93.809 106.122 93.757 105.81 93.5965 105.619C93.4317 105.433 93.1108 105.337 92.625 105.337H73.9152C73.4295 105.337 73.0912 105.433 72.9047 105.619C72.7182 105.81 72.5924 106.118 72.5317 106.552L69.8037 126.151C69.6996 126.91 69.4481 127.447 69.0534 127.773C68.6588 128.098 68.0819 128.258 67.3273 128.258H57.5214C56.8188 128.258 56.3157 128.085 56.0164 127.734C55.7128 127.382 55.6131 126.858 55.7085 126.155L63.3026 71.5695C63.4067 70.8149 63.6582 70.2727 64.0529 69.9518C64.4475 69.6265 64.9983 69.4661 65.7009 69.4661H75.4982C76.2529 69.4661 76.7863 69.6309 77.0899 69.9518C77.3935 70.2771 77.4976 70.8149 77.3891 71.5695L74.6612 91.1684C74.6005 91.6021 74.6395 91.91 74.7739 92.1009C74.9084 92.2917 75.2206 92.3828 75.7064 92.3828H94.4162C94.9019 92.3828 95.2532 92.2874 95.4701 92.1009C95.6869 91.9144 95.8214 91.6021 95.8821 91.1684L98.6101 71.5695C98.7142 70.8149 98.9657 70.2727 99.3604 69.9518C99.755 69.6265 100.306 69.4661 101.008 69.4661H110.806C112.263 69.4661 112.896 70.1687 112.701 71.5738L105.107 126.159C104.912 127.556 104.088 128.254 102.63 128.254Z" fill="white"/>
    <path d="M158.14 115.781C158.448 116.106 158.547 116.644 158.439 117.403L157.22 126.151C157.025 127.556 156.197 128.258 154.74 128.258H120.642C119.939 128.258 119.436 128.085 119.137 127.734C118.834 127.382 118.734 126.858 118.829 126.155L126.423 71.5695C126.527 70.8149 126.779 70.2727 127.174 69.9518C127.568 69.6265 128.119 69.4661 128.822 69.4661H162.837C164.294 69.4661 164.927 70.1687 164.732 71.5738L163.513 80.3216C163.409 81.0762 163.158 81.6183 162.763 81.9393C162.364 82.2646 161.791 82.425 161.037 82.425H140.228C139.742 82.425 139.404 82.5204 139.217 82.7069C139.031 82.8978 138.905 83.2057 138.844 83.6394L137.795 91.1727C137.725 91.6585 137.765 91.9838 137.903 92.1442C138.042 92.3047 138.354 92.3871 138.84 92.3871H156.982C157.736 92.3871 158.253 92.5649 158.53 92.9162C158.803 93.2675 158.89 93.8183 158.786 94.5773L157.58 103.243C157.481 103.945 157.246 104.47 156.873 104.821C156.5 105.173 155.937 105.346 155.182 105.346H137.04C136.554 105.346 136.216 105.441 136.03 105.632C135.843 105.823 135.717 106.131 135.657 106.565L134.607 114.098C134.546 114.532 134.585 114.84 134.72 115.031C134.854 115.221 135.167 115.312 135.652 115.312H156.548C157.303 115.299 157.836 115.46 158.14 115.781Z" fill="white"/>
    <path d="M270.078 116.618C269.609 117.368 268.72 118.066 267.415 118.721C261.248 121.805 255.007 124.169 248.696 125.804C242.386 127.439 235.772 128.258 228.859 128.258C219.044 128.258 210.188 126.181 202.29 122.017C194.393 117.858 188.178 111.995 183.641 104.422C179.105 96.8498 176.841 88.1585 176.841 78.3439C176.841 68.0652 179.131 58.9965 183.711 51.1422C188.291 43.2923 194.623 37.2161 202.707 32.9138C210.791 28.6159 219.929 26.4647 230.117 26.4647C237.125 26.4647 243.739 27.4449 249.954 29.4095C256.169 31.3742 261.755 34.0848 266.708 37.5414C268.295 38.5693 269.093 39.6448 269.093 40.7638C269.093 41.7006 268.764 42.6331 268.113 43.5698L260.961 54.6465C260.493 55.3968 260.024 55.9303 259.56 56.2599C259.092 56.5895 258.533 56.75 257.878 56.75C257.127 56.75 256.243 56.4724 255.215 55.9086C247.083 51.2333 238.717 48.9 230.117 48.9C224.413 48.9 219.461 50.1404 215.254 52.6168C211.047 55.0932 207.798 58.5065 205.508 62.8521C203.218 67.1978 202.074 72.129 202.074 77.6456C202.074 83.2534 203.24 88.2106 205.578 92.5085C207.911 96.8108 211.138 100.15 215.254 102.536C219.365 104.921 224.088 106.109 229.414 106.109C235.113 106.109 240.07 105.316 244.277 103.724C245.118 103.351 245.678 102.978 245.96 102.601C246.242 102.228 246.38 101.573 246.38 100.636V80.868C246.38 79.5583 246.662 78.6041 247.222 77.9926C247.781 77.3854 248.714 77.0818 250.028 77.0818H267.133C268.443 77.0818 269.375 77.3854 269.939 77.9926C270.498 78.5998 270.78 79.5583 270.78 80.868V113.257C270.776 114.749 270.546 115.872 270.078 116.618Z" fill="white"/>
    <path d="M314.475 7.93707C312.906 3.66946 308.846 0.837402 304.301 0.837402H290.8L292.53 5.54738H304.24C306.847 5.54738 309.176 7.17376 310.078 9.61983L314.541 21.7547L318.96 20.1327L314.475 7.93707Z" fill="white"/>
    <path d="M320.452 18.7275H311.418L333.515 78.821L341.469 75.8979L320.452 18.7275Z" fill="white"/>
    <path d="M383.269 51.0729C378.78 43.3617 372.544 37.3333 364.551 32.9876C356.557 28.642 347.515 26.4691 337.418 26.4691C335.172 26.4691 332.986 26.5949 330.843 26.8161L338.98 48.9434C343.503 49.1646 347.636 50.3313 351.37 52.4738C355.53 54.8591 358.8 58.2029 361.185 62.4966C363.57 66.7989 364.759 71.7994 364.759 77.4983C364.759 83.0149 363.544 87.9201 361.111 92.218C358.678 96.5203 355.386 99.8598 351.227 102.245C347.068 104.63 342.414 105.819 337.275 105.819C332.136 105.819 327.508 104.652 323.397 102.315C319.281 99.9812 316.058 96.6591 313.721 92.3612C311.383 88.0632 310.217 83.106 310.217 77.4983C310.217 71.8905 311.383 66.9116 313.721 62.566C316.054 58.2203 319.307 54.8548 323.466 52.4694C325.596 51.2464 327.859 50.3443 330.245 49.7501L322.373 28.3384C318.192 29.4313 314.228 30.9926 310.498 33.0527C302.553 37.4461 296.312 43.5222 291.78 51.2811C287.243 59.04 284.98 67.8268 284.98 77.6414C284.98 87.3649 287.222 96.078 291.711 103.789C296.195 111.5 302.41 117.507 310.36 121.805C318.305 126.107 327.231 128.254 337.141 128.254C347.237 128.254 356.301 126.081 364.342 121.736C372.379 117.39 378.667 111.362 383.2 103.65C387.732 95.9392 390 87.1741 390 77.3595C390 67.5448 387.758 58.7841 383.269 51.0729Z" fill="white"/>
    <path d="M337.492 85.7038C342.1 85.7038 345.836 81.9679 345.836 77.3594C345.836 72.7509 342.1 69.015 337.492 69.015C332.884 69.015 329.148 72.7509 329.148 77.3594C329.148 81.9679 332.884 85.7038 337.492 85.7038Z" fill="white"/>
    <path d="M33.5898 143.967H35.9318V158.839H33.5898V143.967ZM34.6307 143.967H41.7173V146.218H34.6307V143.967ZM34.6307 150.338H40.902V152.567H34.6307V150.338ZM34.6307 156.588H41.7173V158.839H34.6307V156.588Z" fill="white"/>
    <path d="M43.7557 148.222H46.1064V158.839H43.7557V148.222ZM49.0729 151.977C49.0729 151.409 48.9471 150.98 48.6956 150.689C48.444 150.394 48.071 150.251 47.581 150.251C47.1039 150.251 46.7396 150.39 46.488 150.659C46.2365 150.932 46.1107 151.327 46.1107 151.847L45.8939 150.048C46.1671 149.401 46.5314 148.907 46.9868 148.564C47.4422 148.222 47.967 148.052 48.5611 148.052C49.1596 148.052 49.6757 148.191 50.1051 148.469C50.5345 148.746 50.8597 149.15 51.0809 149.679C51.3021 150.208 51.4148 150.859 51.4148 151.622V158.843H49.0729V151.977ZM54.3901 151.977C54.3901 151.409 54.2599 150.98 53.9997 150.689C53.7395 150.394 53.3622 150.251 52.8634 150.251C52.395 150.251 52.0351 150.394 51.7835 150.685C51.5363 150.976 51.4105 151.396 51.4105 151.947L51.0636 150.126C51.3411 149.458 51.7228 148.946 52.2042 148.586C52.6856 148.226 53.2234 148.048 53.8132 148.048C54.4334 148.048 54.9625 148.187 55.4006 148.469C55.8386 148.751 56.1682 149.163 56.3981 149.705C56.6279 150.251 56.7407 150.911 56.7407 151.678V158.839H54.3901V151.977Z" fill="white"/>
    <path d="M59.2909 148.222H61.6328V163.154H59.2909V148.222ZM62.4178 158.513C61.9971 158.192 61.6892 157.746 61.494 157.173L61.6372 155.23C61.6372 155.577 61.6936 155.872 61.8063 156.115C61.9191 156.358 62.0839 156.54 62.2964 156.666C62.5089 156.792 62.7735 156.857 63.0771 156.857C63.5411 156.857 63.9011 156.7 64.157 156.393C64.4128 156.085 64.5386 155.638 64.5386 155.057V151.986C64.5386 151.414 64.4128 150.971 64.157 150.655C63.9011 150.342 63.5411 150.186 63.0771 150.186C62.7691 150.186 62.5089 150.247 62.2964 150.368C62.0839 150.49 61.9191 150.672 61.8063 150.915C61.6936 151.158 61.6372 151.448 61.6372 151.791L61.4203 149.991C61.6805 149.371 62.0318 148.89 62.4742 148.556C62.9166 148.217 63.411 148.048 63.9575 148.048C64.5733 148.048 65.0938 148.196 65.5275 148.495C65.9612 148.79 66.2908 149.223 66.5206 149.796C66.7505 150.368 66.8632 151.054 66.8632 151.869V155.182C66.8632 155.989 66.7461 156.674 66.512 157.247C66.2778 157.819 65.9395 158.253 65.4928 158.552C65.0504 158.847 64.5126 158.999 63.8881 158.999C63.3243 158.99 62.8342 158.83 62.4178 158.513Z" fill="white"/>
    <path d="M70.6972 158.548C70.129 158.253 69.6997 157.819 69.3961 157.247C69.0968 156.679 68.945 155.994 68.945 155.196V151.8C68.945 151.01 69.0968 150.334 69.3961 149.77C69.6953 149.206 70.129 148.781 70.6972 148.486C71.261 148.191 71.9462 148.048 72.7442 148.048C73.5422 148.048 74.2275 148.196 74.7956 148.486C75.3638 148.781 75.7975 149.206 76.0967 149.77C76.3916 150.334 76.5434 151.01 76.5434 151.8V155.226C76.5434 156.015 76.396 156.692 76.0967 157.256C75.8018 157.819 75.3681 158.249 74.7956 158.544C74.2275 158.839 73.5422 158.99 72.7442 158.99C71.9419 158.99 71.261 158.843 70.6972 158.548ZM73.8241 156.358C74.0757 156.076 74.2015 155.673 74.2015 155.148V151.873C74.2015 151.362 74.0757 150.967 73.8241 150.685C73.5726 150.403 73.2083 150.264 72.7399 150.264C72.2758 150.264 71.9158 150.403 71.66 150.685C71.4041 150.963 71.2783 151.362 71.2783 151.873V155.148C71.2783 155.673 71.4041 156.076 71.6556 156.358C71.9072 156.64 72.2715 156.783 72.7399 156.783C73.2126 156.783 73.5726 156.64 73.8241 156.358Z" fill="white"/>
    <path d="M77.7014 148.222H80.013L81.4876 155.473L83.4089 148.222H85.0266L86.9479 155.473L88.4311 148.222H90.7427L87.9107 158.839H86.1108L84.2199 151.678L82.3463 158.839H80.5248L77.7014 148.222Z" fill="white"/>
    <path d="M93.9088 158.518C93.3103 158.201 92.8549 157.737 92.5383 157.13C92.2217 156.523 92.0612 155.785 92.0612 154.909V152.32C92.0612 151.418 92.213 150.65 92.5209 150.013C92.8289 149.375 93.2712 148.889 93.8524 148.556C94.4336 148.222 95.1361 148.052 95.9602 148.052C96.7582 148.052 97.4391 148.23 97.9986 148.586C98.5624 148.942 98.9917 149.462 99.2866 150.152C99.5816 150.841 99.7334 151.661 99.7334 152.615V154.437H93.7396V152.667H97.5258L97.5345 152.003C97.5258 151.431 97.3827 150.976 97.1008 150.642C96.8189 150.308 96.4372 150.139 95.9602 150.139C95.4224 150.139 95.006 150.321 94.7111 150.685C94.4162 151.049 94.2731 151.557 94.2731 152.203V154.966C94.2731 155.573 94.4292 156.041 94.7415 156.366C95.0537 156.692 95.4961 156.857 96.0599 156.857C96.4416 156.857 96.7625 156.761 97.0184 156.575C97.2743 156.388 97.4651 156.115 97.5866 155.751L99.6119 156.466C99.4124 157.303 99.0178 157.932 98.4192 158.353C97.8207 158.774 97.0488 158.982 96.0903 158.982C95.2316 158.99 94.5073 158.834 93.9088 158.518Z" fill="white"/>
    <path d="M102.036 148.222H104.43V158.839H102.036V148.222ZM107.067 150.446C106.902 150.403 106.716 150.381 106.503 150.381C105.849 150.381 105.341 150.564 104.981 150.932C104.621 151.301 104.435 151.813 104.43 152.468L104.213 150.074C104.526 149.432 104.938 148.933 105.441 148.582C105.944 148.226 106.499 148.048 107.106 148.048C107.332 148.048 107.54 148.083 107.731 148.157C107.922 148.23 108.086 148.33 108.221 148.469L107.484 150.646C107.371 150.559 107.232 150.49 107.067 150.446Z" fill="white"/>
    <path d="M109.695 144.006H112.016V146.326H109.695V144.006ZM109.695 148.222H112.016V158.839H109.695V148.222Z" fill="white"/>
    <path d="M114.483 148.222H116.834V158.839H114.483V148.222ZM119.814 151.904C119.814 151.366 119.684 150.954 119.423 150.672C119.163 150.39 118.79 150.247 118.3 150.247C117.823 150.247 117.459 150.386 117.211 150.655C116.964 150.928 116.838 151.323 116.838 151.843L116.622 150.065C116.886 149.401 117.246 148.903 117.697 148.56C118.148 148.217 118.669 148.048 119.263 148.048C120.182 148.048 120.898 148.356 121.401 148.972C121.904 149.588 122.16 150.468 122.16 151.604V158.834H119.818L119.814 151.904Z" fill="white"/>
    <path d="M125.781 158.574C125.343 158.279 125.009 157.854 124.784 157.295C124.558 156.735 124.446 156.063 124.446 155.269V151.821C124.446 151.023 124.558 150.342 124.788 149.774C125.018 149.21 125.348 148.781 125.777 148.486C126.206 148.191 126.727 148.048 127.33 148.048C127.876 148.048 128.371 148.217 128.813 148.551C129.255 148.885 129.611 149.354 129.876 149.952L129.659 151.782C129.659 151.435 129.602 151.145 129.494 150.915C129.385 150.685 129.225 150.499 129.012 150.368C128.8 150.238 128.544 150.169 128.236 150.169C127.772 150.169 127.408 150.325 127.148 150.637C126.883 150.95 126.753 151.383 126.753 151.938V155.169C126.753 155.716 126.883 156.137 127.143 156.432C127.403 156.726 127.768 156.878 128.236 156.878C128.544 156.878 128.8 156.818 129.012 156.696C129.225 156.575 129.385 156.393 129.494 156.158C129.602 155.924 129.659 155.638 129.659 155.304L129.802 157.178C129.62 157.741 129.312 158.192 128.882 158.522C128.453 158.852 127.946 159.016 127.36 159.016C126.744 159.012 126.219 158.865 125.781 158.574ZM125.673 162.486C125.087 162.039 124.727 161.384 124.597 160.517L126.827 159.832C126.909 160.226 127.069 160.53 127.308 160.738C127.547 160.946 127.841 161.05 128.197 161.05C128.661 161.05 129.021 160.912 129.277 160.63C129.533 160.352 129.659 159.958 129.659 159.454V148.226H132.009V159.324C132.009 160.144 131.853 160.838 131.541 161.406C131.229 161.974 130.773 162.412 130.179 162.712C129.585 163.011 128.869 163.163 128.032 163.163C127.048 163.154 126.258 162.933 125.673 162.486Z" fill="white"/>
    <path d="M144.678 143.967H146.447L148.78 154.81L150.437 143.967H152.831L150.069 158.839H147.748L145.632 148.725L143.39 158.839H141.056L138.307 143.967H140.701L142.349 154.81L144.678 143.967Z" fill="white"/>
    <path d="M154.822 158.548C154.254 158.253 153.824 157.819 153.521 157.247C153.222 156.679 153.07 155.994 153.07 155.196V151.8C153.07 151.01 153.222 150.334 153.521 149.77C153.82 149.206 154.254 148.781 154.822 148.486C155.386 148.191 156.071 148.048 156.869 148.048C157.667 148.048 158.352 148.196 158.92 148.486C159.489 148.781 159.922 149.206 160.221 149.77C160.516 150.334 160.668 151.01 160.668 151.8V155.226C160.668 156.015 160.521 156.692 160.221 157.256C159.927 157.819 159.493 158.249 158.92 158.544C158.352 158.839 157.667 158.99 156.869 158.99C156.071 158.99 155.39 158.843 154.822 158.548ZM157.953 156.358C158.205 156.076 158.331 155.673 158.331 155.148V151.873C158.331 151.362 158.205 150.967 157.953 150.685C157.702 150.403 157.337 150.264 156.869 150.264C156.405 150.264 156.045 150.403 155.789 150.685C155.533 150.963 155.407 151.362 155.407 151.873V155.148C155.407 155.673 155.533 156.076 155.785 156.358C156.036 156.64 156.401 156.783 156.869 156.783C157.337 156.783 157.702 156.64 157.953 156.358Z" fill="white"/>
    <path d="M163.006 148.222H165.357V158.839H163.006V148.222ZM168.323 151.977C168.323 151.409 168.197 150.98 167.946 150.689C167.694 150.394 167.321 150.251 166.831 150.251C166.354 150.251 165.99 150.39 165.738 150.659C165.487 150.932 165.361 151.327 165.361 151.847L165.144 150.048C165.417 149.401 165.782 148.907 166.237 148.564C166.692 148.222 167.217 148.052 167.811 148.052C168.41 148.052 168.926 148.191 169.355 148.469C169.785 148.746 170.11 149.15 170.331 149.679C170.552 150.208 170.665 150.859 170.665 151.622V158.843H168.323V151.977ZM173.644 151.977C173.644 151.409 173.514 150.98 173.254 150.689C172.994 150.394 172.617 150.251 172.118 150.251C171.649 150.251 171.29 150.394 171.038 150.685C170.791 150.976 170.665 151.396 170.665 151.947L170.318 150.126C170.596 149.458 170.977 148.946 171.459 148.586C171.94 148.226 172.478 148.048 173.068 148.048C173.688 148.048 174.217 148.187 174.655 148.469C175.093 148.751 175.423 149.163 175.653 149.705C175.882 150.251 175.995 150.911 175.995 151.678V158.839H173.644V151.977Z" fill="white"/>
    <path d="M180.133 158.518C179.534 158.201 179.079 157.737 178.762 157.13C178.446 156.523 178.285 155.785 178.285 154.909V152.32C178.285 151.418 178.437 150.65 178.745 150.013C179.053 149.375 179.495 148.889 180.076 148.556C180.657 148.222 181.36 148.052 182.184 148.052C182.982 148.052 183.663 148.23 184.222 148.586C184.786 148.942 185.216 149.462 185.511 150.152C185.805 150.841 185.957 151.661 185.957 152.615V154.437H179.963V152.667H183.75L183.758 152.003C183.75 151.431 183.607 150.976 183.325 150.642C183.043 150.308 182.661 150.139 182.184 150.139C181.646 150.139 181.23 150.321 180.935 150.685C180.64 151.049 180.497 151.557 180.497 152.203V154.966C180.497 155.573 180.653 156.041 180.965 156.366C181.278 156.692 181.72 156.857 182.284 156.857C182.665 156.857 182.986 156.761 183.242 156.575C183.498 156.388 183.689 156.115 183.81 155.751L185.836 156.466C185.636 157.303 185.242 157.932 184.643 158.353C184.045 158.774 183.273 158.982 182.314 158.982C181.455 158.99 180.731 158.834 180.133 158.518Z" fill="white"/>
    <path d="M188.26 148.222H190.611V158.839H188.26V148.222ZM193.586 151.904C193.586 151.366 193.456 150.954 193.196 150.672C192.935 150.39 192.562 150.247 192.072 150.247C191.595 150.247 191.231 150.386 190.984 150.655C190.737 150.928 190.611 151.323 190.611 151.843L190.394 150.065C190.659 149.401 191.019 148.903 191.47 148.56C191.921 148.217 192.441 148.048 193.035 148.048C193.955 148.048 194.67 148.356 195.173 148.972C195.676 149.588 195.932 150.468 195.932 151.604V158.834H193.59L193.586 151.904Z" fill="white"/>
    <path d="M198.057 156.445H200.438V159.879L198.057 162.326V156.445Z" fill="white"/>
    <path d="M209.577 158.44C208.896 158.071 208.366 157.546 207.998 156.861C207.629 156.176 207.438 155.373 207.438 154.454V148.356C207.438 147.428 207.625 146.626 207.998 145.94C208.371 145.259 208.896 144.735 209.577 144.366C210.257 143.997 211.06 143.815 211.979 143.815C212.899 143.815 213.701 143.997 214.382 144.366C215.063 144.735 215.592 145.259 215.961 145.94C216.334 146.621 216.52 147.428 216.52 148.356V154.454C216.52 155.373 216.334 156.176 215.961 156.861C215.588 157.546 215.063 158.071 214.382 158.44C213.701 158.808 212.899 158.99 211.979 158.99C211.06 158.99 210.257 158.808 209.577 158.44ZM213.124 156.405C213.449 156.223 213.701 155.959 213.87 155.616C214.039 155.274 214.126 154.875 214.126 154.41V148.386C214.126 147.931 214.039 147.532 213.87 147.189C213.701 146.847 213.449 146.587 213.124 146.4C212.795 146.218 212.413 146.122 211.979 146.122C211.546 146.122 211.16 146.214 210.834 146.4C210.505 146.582 210.257 146.847 210.084 147.189C209.91 147.532 209.824 147.931 209.824 148.386V154.41C209.824 154.875 209.91 155.278 210.084 155.616C210.257 155.959 210.509 156.219 210.834 156.405C211.16 156.588 211.541 156.683 211.979 156.683C212.417 156.683 212.795 156.588 213.124 156.405Z" fill="white"/>
    <path d="M219.014 148.222H221.364V158.839H219.014V148.222ZM224.344 151.904C224.344 151.366 224.214 150.954 223.954 150.672C223.693 150.39 223.32 150.247 222.83 150.247C222.353 150.247 221.989 150.386 221.742 150.655C221.495 150.928 221.369 151.323 221.369 151.843L221.152 150.065C221.417 149.401 221.777 148.903 222.228 148.56C222.679 148.217 223.199 148.048 223.793 148.048C224.713 148.048 225.428 148.356 225.931 148.972C226.434 149.588 226.69 150.468 226.69 151.604V158.834H224.348V151.904H224.344Z" fill="white"/>
    <path d="M230.823 158.518C230.225 158.201 229.77 157.737 229.453 157.13C229.136 156.523 228.976 155.785 228.976 154.909V152.32C228.976 151.418 229.128 150.65 229.436 150.013C229.744 149.375 230.186 148.889 230.767 148.556C231.348 148.222 232.051 148.052 232.875 148.052C233.673 148.052 234.354 148.23 234.918 148.586C235.481 148.942 235.911 149.462 236.206 150.152C236.501 150.841 236.652 151.661 236.652 152.615V154.437H230.659V152.667H234.445L234.454 152.003C234.445 151.431 234.302 150.976 234.02 150.642C233.738 150.308 233.356 150.139 232.879 150.139C232.341 150.139 231.925 150.321 231.63 150.685C231.335 151.049 231.192 151.557 231.192 152.203V154.966C231.192 155.573 231.348 156.041 231.661 156.366C231.973 156.692 232.415 156.857 232.979 156.857C233.361 156.857 233.682 156.761 233.937 156.575C234.193 156.388 234.384 156.115 234.506 155.751L236.531 156.466C236.331 157.303 235.937 157.932 235.338 158.353C234.74 158.774 233.968 158.982 233.009 158.982C232.146 158.99 231.422 158.834 230.823 158.518Z" fill="white"/>
    <path d="M243.921 143.958H246.255V158.839H243.921V143.958ZM244.945 150.381H248.861C249.169 150.381 249.438 150.316 249.676 150.182C249.911 150.048 250.093 149.857 250.214 149.609C250.336 149.362 250.401 149.063 250.409 148.716V147.909C250.409 147.567 250.349 147.268 250.227 147.007C250.106 146.747 249.924 146.548 249.689 146.409C249.455 146.27 249.178 146.201 248.865 146.201H244.949V143.958H248.813C249.633 143.958 250.34 144.114 250.943 144.422C251.541 144.735 252.005 145.181 252.335 145.763C252.66 146.344 252.825 147.033 252.825 147.823V148.69C252.825 149.492 252.66 150.191 252.335 150.78C252.01 151.37 251.541 151.826 250.938 152.142C250.336 152.459 249.629 152.619 248.818 152.619H244.953V150.381H244.945ZM247.89 152.16L250.201 151.691L253.341 158.843H250.661L247.89 152.16Z" fill="white"/>
    <path d="M255.141 144.006H257.461V146.326H255.141V144.006ZM255.141 148.222H257.461V158.839H255.141V148.222Z" fill="white"/>
    <path d="M261.013 158.578C260.575 158.283 260.246 157.854 260.016 157.299C259.786 156.744 259.673 156.067 259.673 155.269V151.821C259.673 151.023 259.786 150.342 260.016 149.774C260.246 149.21 260.575 148.777 261.005 148.482C261.434 148.187 261.95 148.035 262.557 148.035C263.095 148.035 263.59 148.204 264.036 148.538C264.483 148.872 264.843 149.345 265.116 149.948L264.899 151.791C264.899 151.448 264.843 151.162 264.73 150.924C264.617 150.685 264.457 150.503 264.244 150.377C264.032 150.251 263.776 150.186 263.468 150.186C263.004 150.186 262.644 150.342 262.384 150.65C262.124 150.963 261.993 151.396 261.993 151.956V155.156C261.993 155.703 262.124 156.124 262.384 156.419C262.644 156.713 263.004 156.865 263.468 156.865C263.776 156.865 264.032 156.805 264.244 156.683C264.457 156.562 264.617 156.38 264.73 156.141C264.843 155.902 264.899 155.616 264.899 155.282L265.042 157.173C264.843 157.746 264.531 158.197 264.106 158.526C263.681 158.856 263.173 159.021 262.588 159.021C261.972 159.025 261.447 158.873 261.013 158.578ZM264.899 143.967H267.241V158.839H264.899V143.967Z" fill="white"/>
    <path d="M271.379 158.518C270.78 158.201 270.325 157.737 270.008 157.13C269.692 156.523 269.531 155.785 269.531 154.909V152.32C269.531 151.418 269.683 150.65 269.991 150.013C270.299 149.375 270.741 148.889 271.322 148.556C271.904 148.222 272.606 148.052 273.43 148.052C274.228 148.052 274.909 148.23 275.473 148.586C276.037 148.942 276.466 149.462 276.761 150.152C277.056 150.841 277.208 151.661 277.208 152.615V154.437H271.214V152.667H275L275.009 152.003C275 151.431 274.857 150.976 274.575 150.642C274.293 150.308 273.912 150.139 273.434 150.139C272.897 150.139 272.48 150.321 272.185 150.685C271.891 151.049 271.747 151.557 271.747 152.203V154.966C271.747 155.573 271.904 156.041 272.216 156.366C272.528 156.692 272.97 156.857 273.534 156.857C273.916 156.857 274.237 156.761 274.493 156.575C274.749 156.388 274.939 156.115 275.061 155.751L277.086 156.466C276.887 157.303 276.492 157.932 275.894 158.353C275.295 158.774 274.523 158.982 273.565 158.982C272.702 158.99 271.973 158.834 271.379 158.518Z" fill="white"/>
    <path d="M284.862 158.205C284.346 157.681 284.086 156.891 284.086 155.842C284.086 154.744 284.385 153.912 284.98 153.352C285.574 152.793 286.463 152.507 287.634 152.507H289.585L289.729 154.389H287.673C287.209 154.389 286.858 154.51 286.623 154.753C286.389 154.996 286.272 155.36 286.272 155.842C286.272 156.249 286.393 156.553 286.636 156.752C286.879 156.952 287.244 157.047 287.725 157.047C288.319 157.047 288.766 156.943 289.065 156.739C289.364 156.536 289.516 156.232 289.516 155.829L289.72 157.047C289.659 157.477 289.516 157.837 289.291 158.127C289.065 158.418 288.774 158.635 288.414 158.778C288.055 158.921 287.643 158.995 287.17 158.995C286.155 158.99 285.383 158.73 284.862 158.205ZM289.52 151.626C289.52 151.158 289.386 150.789 289.117 150.525C288.848 150.264 288.462 150.13 287.968 150.13C287.612 150.13 287.296 150.212 287.018 150.377C286.74 150.542 286.515 150.767 286.354 151.054L284.463 150.377C284.68 149.64 285.097 149.067 285.708 148.66C286.32 148.252 287.079 148.044 287.985 148.044C288.77 148.044 289.442 148.183 290.002 148.464C290.561 148.746 290.991 149.15 291.286 149.675C291.581 150.204 291.732 150.837 291.732 151.583V158.834H289.533V151.626H289.52Z" fill="white"/>
    <path d="M293.445 148.222H298.294V150.329H293.445V148.222ZM295.124 158.184C294.699 157.715 294.491 157.013 294.491 156.076V145.134H296.833V155.811C296.833 156.076 296.889 156.28 297.002 156.427C297.115 156.575 297.275 156.644 297.488 156.644H298.294V158.895H297.106C296.208 158.891 295.545 158.656 295.124 158.184Z" fill="white"/>
    <path d="M305.793 158.205C305.277 157.681 305.017 156.891 305.017 155.842C305.017 154.744 305.316 153.912 305.91 153.352C306.504 152.793 307.393 152.507 308.564 152.507H310.516L310.659 154.389H308.603C308.139 154.389 307.788 154.51 307.554 154.753C307.319 154.996 307.202 155.36 307.202 155.842C307.202 156.249 307.324 156.553 307.567 156.752C307.81 156.952 308.174 157.047 308.655 157.047C309.249 157.047 309.696 156.943 309.995 156.739C310.295 156.536 310.446 156.232 310.446 155.829L310.65 157.047C310.59 157.477 310.446 157.837 310.221 158.127C309.995 158.418 309.705 158.635 309.345 158.778C308.985 158.921 308.573 158.995 308.1 158.995C307.081 158.99 306.309 158.73 305.793 158.205ZM310.446 151.626C310.446 151.158 310.312 150.789 310.043 150.525C309.774 150.264 309.388 150.13 308.894 150.13C308.538 150.13 308.222 150.212 307.944 150.377C307.666 150.542 307.441 150.767 307.28 151.054L305.39 150.377C305.606 149.64 306.023 149.067 306.634 148.66C307.246 148.252 308.005 148.044 308.911 148.044C309.696 148.044 310.368 148.183 310.928 148.464C311.487 148.746 311.917 149.15 312.212 149.675C312.507 150.204 312.658 150.837 312.658 151.583V158.834H310.459V151.626H310.446Z" fill="white"/>
    <path d="M318.626 143.967H327.647V146.209H318.626V143.967ZM321.974 145.194H324.294V158.839H321.974V145.194Z" fill="white"/>
    <path d="M328.684 144.006H331.004V146.326H328.684V144.006ZM328.684 148.222H331.004V158.839H328.684V148.222Z" fill="white"/>
    <path d="M333.467 148.222H335.818V158.839H333.467V148.222ZM338.789 151.977C338.789 151.409 338.663 150.98 338.411 150.689C338.16 150.399 337.787 150.251 337.297 150.251C336.82 150.251 336.455 150.39 336.204 150.659C335.952 150.932 335.827 151.327 335.827 151.847L335.61 150.048C335.883 149.401 336.247 148.907 336.703 148.564C337.158 148.222 337.683 148.052 338.277 148.052C338.876 148.052 339.392 148.191 339.821 148.469C340.25 148.746 340.576 149.15 340.797 149.679C341.018 150.208 341.131 150.859 341.131 151.622V158.843H338.789V151.977ZM344.106 151.977C344.106 151.409 343.976 150.98 343.716 150.689C343.455 150.399 343.078 150.251 342.579 150.251C342.111 150.251 341.751 150.394 341.499 150.685C341.252 150.976 341.126 151.396 341.126 151.947L340.779 150.126C341.057 149.458 341.439 148.946 341.92 148.586C342.401 148.226 342.939 148.048 343.529 148.048C344.149 148.048 344.678 148.187 345.116 148.469C345.554 148.751 345.884 149.163 346.114 149.705C346.344 150.251 346.457 150.911 346.457 151.678V158.839H344.106V151.977Z" fill="white"/>
    <path d="M350.594 158.518C349.996 158.201 349.54 157.737 349.224 157.13C348.907 156.523 348.747 155.785 348.747 154.909V152.32C348.747 151.418 348.898 150.65 349.206 150.013C349.514 149.375 349.957 148.889 350.538 148.556C351.119 148.222 351.821 148.052 352.645 148.052C353.443 148.052 354.124 148.23 354.688 148.586C355.252 148.942 355.681 149.462 355.976 150.152C356.271 150.841 356.423 151.661 356.423 152.615V154.437H350.429V152.667H354.215L354.224 152.003C354.215 151.431 354.072 150.976 353.79 150.642C353.509 150.308 353.127 150.139 352.65 150.139C352.112 150.139 351.696 150.321 351.401 150.685C351.106 151.049 350.963 151.557 350.963 152.203V154.966C350.963 155.573 351.119 156.041 351.431 156.366C351.743 156.692 352.186 156.857 352.75 156.857C353.131 156.857 353.452 156.761 353.708 156.575C353.964 156.388 354.155 156.115 354.276 155.751L356.302 156.466C356.102 157.303 355.707 157.932 355.109 158.353C354.51 158.774 353.738 158.982 352.78 158.982C351.921 158.99 351.193 158.834 350.594 158.518Z" fill="white"/>
</svg>
