<svg width="38" height="26" viewBox="0 0 38 26" fill="none" xmlns="http://www.w3.org/2000/svg">
    <path d="M37.3447 10.5144C37.1108 10.1246 34.802 9.12731 34.802 9.12731C35.2036 8.9199 35.4781 8.87702 35.4781 8.01932C35.4781 7.08364 35.4734 6.77175 34.8496 6.77175H32.7334C32.7248 6.75304 32.7155 6.73355 32.7069 6.71405C31.3408 3.73082 31.1576 2.97682 29.1202 1.96162C26.3872 0.602551 21.2636 0.533936 19.2551 0.533936C17.2465 0.533936 12.1229 0.602551 9.3923 1.96162C7.35253 2.97526 7.40322 3.4969 5.80555 6.71405C5.80555 6.72263 5.78918 6.74524 5.77437 6.77175H3.65585C3.03675 6.77175 3.03207 7.08364 3.03207 8.01932C3.03207 8.87702 3.30653 8.9199 3.70809 9.12731C3.70809 9.12731 1.47729 10.2026 1.1654 10.5144C0.853509 10.8263 0.541618 13.0096 0.541618 16.7523C0.541618 20.4949 0.853509 24.2376 0.853509 24.2376H1.7845C1.7845 25.3293 1.94513 25.4852 2.41296 25.4852H8.65078C9.11862 25.4852 9.27456 25.3293 9.27456 24.2376H29.2356C29.2356 25.3293 29.3915 25.4852 29.8594 25.4852H36.2531C36.565 25.4852 36.721 25.2513 36.721 24.2376H37.6566C37.6566 24.2376 37.9685 20.417 37.9685 16.7523C37.9685 13.0875 37.5787 10.9043 37.3447 10.5144ZM9.06091 14.0185C7.64081 14.1738 6.21346 14.2534 4.78489 14.2571C3.19269 14.2571 3.13811 14.3593 3.02583 13.3651C2.98359 12.9101 2.99695 12.4516 3.06559 11.9998L3.11472 11.762H3.34864C4.28431 11.762 5.16306 11.8018 6.82232 12.2907C7.66624 12.5439 8.46 12.9412 9.16852 13.4649C9.50848 13.7113 9.58645 13.9452 9.58645 13.9452L9.06091 14.0185ZM28.3326 19.6326L27.988 20.4949H10.5221C10.5221 20.4949 10.5525 20.4474 10.1323 19.6232C9.82037 19.0135 10.2102 18.6236 10.827 18.4022C12.0215 17.9718 15.5124 16.7523 19.2551 16.7523C22.9978 16.7523 26.558 17.8033 27.7151 18.4022C28.144 18.6236 28.6765 18.7795 28.3326 19.6372V19.6326ZM8.29366 8.98696C8.04181 9.00146 7.78941 9.00333 7.53733 8.99241C7.74084 8.63062 7.8539 8.2275 8.05273 7.80645C8.67651 6.48091 9.38996 4.98072 10.6601 4.34836C12.4956 3.43452 16.2999 3.02282 19.2551 3.02282C22.2102 3.02282 26.0145 3.4314 27.85 4.34836C29.1202 4.98072 29.8305 6.48169 30.4574 7.80645C30.6578 8.2314 30.7693 8.63764 30.9783 9.00177C30.8223 9.01035 30.643 9.00177 30.2149 8.98696H8.29366ZM35.4063 13.362C35.2395 14.3351 35.3954 14.2571 33.7252 14.2571C32.2967 14.2534 30.8693 14.1738 29.4492 14.0185C29.227 13.9788 29.1638 13.6037 29.3416 13.4649C30.0465 12.9354 30.8414 12.5375 31.6878 12.2907C33.3471 11.8018 34.2812 11.7363 35.2036 11.769C35.2656 11.7714 35.3244 11.7966 35.3689 11.8398C35.4134 11.883 35.4403 11.9411 35.4445 12.0029C35.4887 12.4568 35.4758 12.9144 35.4063 13.3651V13.362Z" fill="#F564A9"/>
</svg>
