<svg width="64" height="64" viewBox="0 0 64 64" fill="none" xmlns="http://www.w3.org/2000/svg">
<rect width="64" height="64" rx="12" fill="#FFB4FC"/>
<g clip-path="url(#clip0_476_1195)">
<path d="M32 16.7026C23.3575 16.7026 16.3513 23.7088 16.3513 32.3513C16.3513 35.6143 17.35 38.6441 19.0584 41.1516L44.9334 41.1637C46.6468 38.6538 47.6487 35.6196 47.6487 32.3513C47.6487 23.7088 40.6426 16.7026 32 16.7026Z" fill="#F564A9"/>
<path d="M32 45.1257C39.0552 45.1257 44.7745 39.4064 44.7745 32.3513C44.7745 25.2962 39.0552 19.5768 32 19.5768C24.9449 19.5768 19.2256 25.2962 19.2256 32.3513C19.2256 39.4064 24.9449 45.1257 32 45.1257Z" fill="#8379C1"/>
<path d="M41.8761 38.7841C41.8387 38.7747 37.4312 37.7986 37.4312 37.7986C37.4312 37.7986 34.3946 37.9916 31.025 38.2067C26.7695 38.4782 24.1491 42.9796 26.0144 46.8142C27.1413 47.2811 28.3193 47.6138 29.524 47.8051L34.4092 47.8156C35.6148 47.6295 36.7942 47.302 37.9232 46.8399L41.0983 45.0841C42.5961 44.0116 43.8939 42.6845 44.9328 41.1632C44.2984 40.0081 43.2158 39.1214 41.8761 38.7841Z" fill="#C8EFFE"/>
<path d="M28.983 37.2541C26.0912 37.8963 22.1387 38.7742 22.1073 38.7822C20.7725 39.1192 19.6934 40.0015 19.0588 41.1512C20.0471 42.6014 21.2711 43.8761 22.6799 44.9225L25.9508 44.9071V43.5653C25.9508 41.9056 27.7487 41.6435 28.9829 41.5175L28.983 37.2541Z" fill="#62DBFB"/>
<path d="M39.5738 26.0213V22.68C39.5738 18.9908 36.583 16 32.8938 16H31.1264C27.3076 16 24.2118 19.0958 24.2118 22.9146V26.0212L39.5738 26.0213Z" fill="#433F43"/>
<path d="M31.9261 40.1155C30.6194 40.1155 29.5601 39.0563 29.5601 37.7496V32.4502H34.292V37.7496C34.292 39.0563 33.2327 40.1155 31.9261 40.1155Z" fill="#F564A9"/>
<path d="M34.292 35.706V33.04H29.5601V35.706C29.5601 37.0127 30.6194 38.072 31.9261 38.072C33.2327 38.072 34.292 37.0127 34.292 35.706Z" fill="#FFB4FC"/>
<path d="M38.6431 28.801H38.2255V24.8084H38.6431C39.5129 24.8084 40.218 25.5135 40.218 26.3833V27.226C40.218 28.0959 39.5129 28.801 38.6431 28.801Z" fill="#F564A9"/>
<path d="M38.6431 27.5016V26.1078C38.7889 26.1078 38.9288 26.1657 39.0319 26.2688C39.135 26.3719 39.1929 26.5118 39.1929 26.6576V26.9518C39.1929 27.0976 39.135 27.2375 39.0319 27.3406C38.9288 27.4437 38.7889 27.5016 38.6431 27.5016Z" fill="#FFB4FC"/>
<path d="M23.5676 27.2261C23.5676 28.0959 24.2727 28.801 25.1425 28.801H25.5072L25.6185 24.8084H25.1425C24.2727 24.8084 23.5676 25.5135 23.5676 26.3833V27.2261Z" fill="#F564A9"/>
<path d="M24.5907 26.9523C24.5907 27.0986 24.6489 27.239 24.7523 27.3425C24.8558 27.4459 24.9962 27.5041 25.1425 27.5041V26.1053C24.9962 26.1053 24.8558 26.1634 24.7523 26.2669C24.6489 26.3704 24.5907 26.5107 24.5907 26.6571V26.9523Z" fill="#FFB4FC"/>
<path d="M26.8124 20.6251L26.835 31.4843C26.9162 34.1904 29.1719 36.3263 31.8791 36.351L32.8097 36.3595C36.1018 35.9269 38.6431 33.1105 38.6431 29.7003L38.6719 27.9579L37.0732 20.6251H26.8124Z" fill="#FFB4FC"/>
<path d="M29.0238 27.1903V27.664C29.026 27.8109 29.0859 27.951 29.1906 28.0541C29.2953 28.1572 29.4363 28.215 29.5833 28.215C29.7302 28.215 29.8712 28.1572 29.9759 28.0541C30.0806 27.951 30.1405 27.8109 30.1427 27.664V27.1903H29.0238ZM33.5822 27.1903V27.664C33.5844 27.8109 33.6443 27.951 33.749 28.0541C33.8537 28.1572 33.9947 28.215 34.1416 28.215C34.2886 28.215 34.4296 28.1572 34.5343 28.0541C34.6389 27.951 34.6989 27.8109 34.7011 27.664V27.1903H33.5822Z" fill="#F564A9"/>
<path d="M29.5833 27.7753C29.4349 27.7753 29.2926 27.7163 29.1877 27.6114C29.0828 27.5065 29.0238 27.3642 29.0238 27.2158V26.4962L29.23 26.1839L29.0238 25.8717V25.6858C29.026 25.5389 29.0859 25.3987 29.1906 25.2956C29.2953 25.1925 29.4363 25.1347 29.5833 25.1347C29.7302 25.1347 29.8712 25.1925 29.9759 25.2956C30.0806 25.3987 30.1405 25.5389 30.1427 25.6858V27.2158C30.1427 27.3642 30.0838 27.5065 29.9788 27.6114C29.8739 27.7163 29.7316 27.7753 29.5833 27.7753ZM34.1416 27.7753C33.9933 27.7753 33.851 27.7163 33.7461 27.6114C33.6411 27.5065 33.5822 27.3642 33.5822 27.2158V26.4962L33.7884 26.1839L33.5822 25.8717V25.6858C33.5844 25.5389 33.6443 25.3987 33.749 25.2956C33.8537 25.1925 33.9947 25.1347 34.1416 25.1347C34.2886 25.1347 34.4296 25.1925 34.5343 25.2956C34.6389 25.3987 34.6989 25.5389 34.7011 25.6858V27.2158C34.7011 27.3642 34.6421 27.5065 34.5372 27.6114C34.4323 27.7163 34.29 27.7753 34.1416 27.7753ZM30.3203 24.519H28.6888C28.5404 24.519 28.3981 24.46 28.2932 24.3551C28.1883 24.2502 28.1293 24.1079 28.1293 23.9595C28.1293 23.8111 28.1883 23.6688 28.2932 23.5639C28.3981 23.459 28.5404 23.4001 28.6888 23.4001H30.3203C30.4672 23.4023 30.6073 23.4622 30.7104 23.5669C30.8136 23.6715 30.8713 23.8126 30.8713 23.9595C30.8713 24.1064 30.8136 24.2475 30.7104 24.3522C30.6073 24.4568 30.4672 24.5167 30.3203 24.519ZM34.9824 24.519H33.3509C33.2025 24.519 33.0602 24.46 32.9553 24.3551C32.8504 24.2502 32.7914 24.1079 32.7914 23.9595C32.7914 23.8111 32.8504 23.6688 32.9553 23.5639C33.0602 23.459 33.2025 23.4001 33.3509 23.4001H34.9824C35.1293 23.4023 35.2694 23.4622 35.3725 23.5669C35.4757 23.6715 35.5334 23.8126 35.5334 23.9595C35.5334 24.1064 35.4757 24.2475 35.3725 24.3522C35.2694 24.4568 35.1293 24.5167 34.9824 24.519Z" fill="#433F43"/>
<path d="M31.0196 28.5695C30.8805 29.1249 31.1333 29.7298 31.6166 29.9122C31.816 29.9876 32.0361 29.9876 32.2355 29.9122C32.7189 29.7298 32.9717 29.1249 32.8325 28.5695L32.3715 26.7284C32.2555 26.2649 31.5967 26.2649 31.4807 26.7284L31.0196 28.5695Z" fill="#F564A9"/>
<path d="M29.23 26.7024C29.1754 26.7024 29.1229 26.6807 29.0842 26.642C29.0456 26.6033 29.0238 26.5509 29.0238 26.4962V25.8716C29.0251 25.8178 29.0475 25.7666 29.086 25.729C29.1245 25.6914 29.1762 25.6704 29.23 25.6704C29.2839 25.6704 29.3356 25.6914 29.3741 25.729C29.4126 25.7666 29.435 25.8178 29.4363 25.8716V26.4962C29.4363 26.5509 29.4145 26.6033 29.3759 26.642C29.3372 26.6807 29.2847 26.7024 29.23 26.7024ZM33.7884 26.7024C33.7337 26.7024 33.6813 26.6807 33.6426 26.642C33.6039 26.6033 33.5822 26.5509 33.5822 26.4962V25.8716C33.5835 25.8178 33.6058 25.7666 33.6444 25.729C33.6829 25.6914 33.7346 25.6704 33.7884 25.6704C33.8422 25.6704 33.8939 25.6914 33.9325 25.729C33.971 25.7666 33.9933 25.8178 33.9947 25.8716V26.4962C33.9946 26.5509 33.9729 26.6033 33.9342 26.642C33.8956 26.6807 33.8431 26.7024 33.7884 26.7024Z" fill="white"/>
<path d="M38.133 20.4781H25.896L25.1425 27.5041V29.6339C25.1425 33.3637 28.1491 36.3768 31.8492 36.4164C31.8573 36.4165 31.8654 36.4172 31.8736 36.4172C32.0108 36.4182 32.1479 36.4151 32.2849 36.4078L32.2901 36.4076L32.2898 36.4075C32.465 36.3981 32.6383 36.3818 32.8097 36.3593C29.49 35.9267 27.3296 33.0877 27.3296 29.6339V22.3413C27.3296 21.8303 27.6627 21.3697 28.1555 21.2345L28.1648 21.2319C28.5391 21.7234 29.1301 22.0408 29.7955 22.0408H34.6335C35.2808 22.0413 35.9232 21.9292 36.532 21.7093C36.9823 22.1099 37.2662 22.6935 37.2662 23.3437V26.5524C37.2662 27.3286 37.8955 27.958 38.6717 27.958V27.5016L38.133 20.4781Z" fill="#F564A9"/>
<path d="M28.0251 19.0816C26.4331 19.0816 25.1425 20.3722 25.1425 21.9642V27.5016C25.9187 27.5016 26.548 26.8723 26.548 26.0961V22.8873C26.548 21.6793 27.5273 20.7 28.7353 20.7H35.0789C36.287 20.7 37.2663 21.6793 37.2663 22.8873V26.0962C37.2663 26.8724 37.8956 27.5017 38.6718 27.5017V21.9642C38.6718 20.3722 37.3812 19.0816 35.7892 19.0816H28.0251Z" fill="#433F43"/>
<path d="M31.2825 16C29.3298 16 27.7468 17.5829 27.7468 19.5356C27.7468 20.6671 28.6641 21.5844 29.7956 21.5844H34.6336C37.2876 21.5844 39.5092 19.7331 40.0773 17.2514C40.2241 16.6099 39.7287 16 39.0706 16H31.2825Z" fill="#554E56"/>
<path d="M34.1112 30.5157H33.5208L31.966 30.8385L30.4112 30.5157H29.8889C29.7137 30.5157 29.5737 30.6686 29.597 30.8423C29.6407 31.1671 29.7502 31.4796 29.9188 31.7607L33.0672 32.6937C33.7782 32.3447 34.2933 31.6577 34.403 30.8423C34.4264 30.6686 34.2864 30.5157 34.1112 30.5157Z" fill="#E41E7F"/>
<path d="M29.9191 31.7605C30.3428 32.4672 31.116 32.9404 32 32.9404C32.3699 32.9409 32.735 32.8563 33.067 32.6933C32.9286 31.825 32.1765 31.1613 31.2692 31.1613C30.7337 31.1613 30.2522 31.3925 29.9191 31.7605Z" fill="#FE646F"/>
<path d="M33.1009 31.1613H30.831C30.7196 31.1613 30.6128 31.1171 30.5341 31.0383C30.4553 30.9596 30.4111 30.8528 30.4111 30.7414V30.5157H33.5208V30.7414C33.5208 30.8528 33.4766 30.9596 33.3978 31.0383C33.3191 31.1171 33.2123 31.1613 33.1009 31.1613Z" fill="white"/>
<path d="M31.9261 41.2147V40.1156L36.5652 37.6068L37.4312 37.7986L34.9425 43.24C34.7878 43.5783 34.3424 43.6573 34.0808 43.3928L31.9261 41.2147Z" fill="#62DBFB"/>
<path d="M31.9261 40.1155L34.292 35.9886L36.5652 37.6068L34.1667 42.4585L31.9261 40.1155Z" fill="white"/>
<path d="M31.926 41.2147V40.1156L29.4581 38.072L27.185 39.0884L29.2272 43.2196C29.3961 43.5613 29.8589 43.6196 30.1073 43.3306L31.926 41.2147Z" fill="#62DBFB"/>
<path d="M31.8796 40.1155L29.5555 35.9911L27.2405 37.6068L29.639 42.4585L31.8796 40.1155Z" fill="#C8EFFE"/>
<path d="M31.966 39.835C28.1968 39.835 25.0042 42.3485 23.9749 45.7872C24.6288 46.1787 25.3106 46.5217 26.0147 46.8135C26.6351 44.1007 29.0678 42.0706 31.966 42.0706C34.8732 42.0706 37.312 44.1135 37.9229 46.8391C38.1959 46.7273 38.4658 46.6078 38.732 46.4807L39.7282 45.1256C38.5082 42.0309 35.4889 39.835 31.966 39.835Z" fill="#554E56"/>
<path d="M32 48C32.8193 48 33.6238 47.9368 34.4091 47.8154C34.235 46.622 33.2076 45.7055 31.966 45.7055C30.728 45.7055 29.703 46.6163 29.5242 47.8044C30.343 47.9346 31.1709 48 32 48ZM31.966 39.835C28.3287 39.835 25.2283 42.1757 24.0907 45.4298L25.2483 46.4715C25.5006 46.5924 25.7562 46.7064 26.0147 46.8135C26.6351 44.1007 29.0678 42.0706 31.966 42.0706C32.5833 42.0706 33.0837 41.5701 33.0837 40.9528C33.0837 40.3355 32.5833 39.835 31.966 39.835Z" fill="#433F43"/>
<path d="M32.7644 46.8304V41.7262C32.7644 41.2853 32.4069 40.9278 31.966 40.9278C31.5251 40.9278 31.1676 41.2853 31.1676 41.7262V46.8304H32.7644Z" fill="#433F43"/>
<path d="M40.5974 44.907H38.918C38.477 44.907 38.1196 45.2645 38.1196 45.7054C38.1196 46.0823 38.381 46.3974 38.7321 46.4812C39.5603 46.0858 40.352 45.6183 41.0982 45.0842C40.9565 44.9694 40.7797 44.9069 40.5974 44.907ZM26.9786 43.583C26.7857 43.583 26.5923 43.5135 26.439 43.3728L25.2017 42.2374C24.8768 41.9392 24.8551 41.4342 25.1533 41.1093C25.4514 40.7844 25.9565 40.7628 26.2814 41.0608L27.5187 42.1963C27.8436 42.4945 27.8653 42.9995 27.5671 43.3243C27.4924 43.406 27.4015 43.4711 27.3001 43.5157C27.1988 43.5602 27.0893 43.5831 26.9786 43.583Z" fill="#FFB4FC"/>
<path d="M25.864 44.6817C25.6711 44.6817 25.4778 44.6123 25.3244 44.4716L24.0871 43.3362C23.7622 43.038 23.7405 42.533 24.0386 42.2081C24.3367 41.8831 24.8418 41.8615 25.1667 42.1596L26.404 43.295C26.7289 43.5932 26.7506 44.0982 26.4525 44.4231C26.3778 44.5047 26.2868 44.5699 26.1855 44.6144C26.0842 44.6589 25.9747 44.6819 25.864 44.6817Z" fill="#FFB4FC"/>
<path d="M25.0858 46.0578C24.8929 46.0578 24.6995 45.9883 24.5462 45.8476L23.3088 44.7122C22.9839 44.4141 22.9623 43.909 23.2604 43.5842C23.5585 43.2593 24.0636 43.2376 24.3884 43.5357L25.6257 44.6711C25.9507 44.9693 25.9723 45.4743 25.6742 45.7992C25.5995 45.8808 25.5086 45.9459 25.4072 45.9905C25.3059 46.035 25.1964 46.0579 25.0858 46.0578Z" fill="#FFB4FC"/>
<path d="M22.6801 44.9224C23.4845 45.52 24.3444 46.0389 25.2481 46.472C25.2144 46.3085 25.1301 46.1599 25.0071 46.0472L23.7698 44.9118C23.4583 44.6259 22.9816 44.6348 22.6801 44.9224Z" fill="#FFB4FC"/>
</g>
<defs>
<clipPath id="clip0_476_1195">
<rect width="32" height="32" fill="white" transform="translate(16 16)"/>
</clipPath>
</defs>
</svg>
