<svg width="16" height="20" viewBox="0 0 16 20" fill="none" xmlns="http://www.w3.org/2000/svg">
    <path fill-rule="evenodd" clip-rule="evenodd" d="M3.30621 5.75816L3.64927 8.84572L2.95505 8.90114C1.98695 8.97843 1.19645 9.70616 1.03952 10.6646C0.677827 12.8735 0.677827 15.1265 1.03952 17.3354C1.19645 18.2938 1.98695 19.0215 2.95505 19.0988L4.45118 19.2183C6.81332 19.4068 9.18674 19.4068 11.5489 19.2183L13.045 19.0988C14.0131 19.0215 14.8036 18.2938 14.9605 17.3354C15.3222 15.1265 15.3222 12.8735 14.9605 10.6646C14.8036 9.70616 14.0131 8.97843 13.045 8.90114L12.3507 8.84571L12.6937 5.75815C12.7342 5.39418 12.7342 5.02684 12.6937 4.66286L12.671 4.45797C12.4295 2.28458 10.7209 0.564916 8.5491 0.309412C8.18428 0.266492 7.81568 0.266492 7.45085 0.309412C5.27907 0.564916 3.57046 2.28457 3.32898 4.45796L3.30621 4.66286C3.26577 5.02684 3.26577 5.39418 3.30621 5.75816ZM8.37384 1.79914C8.12545 1.76992 7.8745 1.76992 7.62611 1.79914C6.14749 1.97309 4.98422 3.1439 4.8198 4.62361L4.79704 4.82851C4.76883 5.08239 4.76883 5.33862 4.79704 5.59251L5.14583 8.7317C7.04664 8.6098 8.95331 8.60979 10.8541 8.73169L11.2029 5.59251C11.2311 5.33862 11.2311 5.08239 11.2029 4.82851L11.1802 4.62361C11.0157 3.1439 9.85246 1.97309 8.37384 1.79914ZM8 12.5C7.17157 12.5 6.5 13.1716 6.5 14C6.5 14.8284 7.17157 15.5 8 15.5C8.82843 15.5 9.5 14.8284 9.5 14C9.5 13.1716 8.82843 12.5 8 12.5Z" fill="#F564A9"/>
</svg>
