<svg width="24" height="24" viewBox="0 0 24 24" fill="none" xmlns="http://www.w3.org/2000/svg">
    <path d="M12 24C18.6274 24 24 18.6274 24 12C24 5.37258 18.6274 0 12 0C5.37258 0 0 5.37258 0 12C0 18.6274 5.37258 24 12 24Z" fill="#F564A9"/>
    <path d="M19.4414 16.9622C19.4859 17.1425 19.4873 17.3307 19.4455 17.5116C19.4037 17.6926 19.3199 17.8611 19.201 18.0037C18.3211 19.0591 17.22 19.9082 15.9757 20.4909C14.7313 21.0736 13.3741 21.3756 12 21.3756C10.626 21.3756 9.26874 21.0736 8.02437 20.4909C6.78 19.9082 5.67892 19.0591 4.79908 18.0037C4.6801 17.8611 4.59634 17.6926 4.55457 17.5116C4.51279 17.3307 4.51418 17.1425 4.55862 16.9622C4.96697 15.3052 5.91648 13.8318 7.25674 12.7753C7.45666 12.6186 7.70246 12.5317 7.95647 12.5281C8.21047 12.5244 8.45866 12.6042 8.66299 12.7551C9.55362 13.4175 10.7213 13.8187 11.9981 13.8187C13.275 13.8187 14.4422 13.4175 15.3333 12.7551C15.5376 12.6042 15.7858 12.5244 16.0398 12.5281C16.2938 12.5317 16.5396 12.6186 16.7396 12.7753C18.0812 13.8312 19.0321 15.3046 19.4414 16.9622Z" fill="white"/>
    <path d="M12 12.2709C14.3789 12.2709 16.3074 10.3425 16.3074 7.96359C16.3074 5.58471 14.3789 3.65625 12 3.65625C9.62115 3.65625 7.69269 5.58471 7.69269 7.96359C7.69269 10.3425 9.62115 12.2709 12 12.2709Z" fill="white"/>
</svg>
