<svg width="64" height="64" viewBox="0 0 64 64" fill="none" xmlns="http://www.w3.org/2000/svg">
<rect width="64" height="64" rx="12" fill="#FFB4FC"/>
<g clip-path="url(#clip0_476_1808)">
<path d="M32 48C40.8366 48 48 40.8366 48 32C48 23.1634 40.8366 16 32 16C23.1634 16 16 23.1634 16 32C16 40.8366 23.1634 48 32 48Z" fill="#FF0CF4"/>
<path d="M41.9219 38.6163C41.9811 38.8567 41.983 39.1076 41.9273 39.3489C41.8716 39.5901 41.7599 39.8149 41.6013 40.005C40.4281 41.4122 38.96 42.5443 37.3009 43.3213C35.6417 44.0982 33.8321 44.5009 32 44.5009C30.168 44.5009 28.3583 44.0982 26.6991 43.3213C25.04 42.5443 23.5719 41.4122 22.3988 40.005C22.2401 39.8149 22.1284 39.5901 22.0727 39.3489C22.017 39.1076 22.0189 38.8567 22.0781 38.6163C22.6226 36.4069 23.8886 34.4424 25.6756 33.0338C25.9422 32.8248 26.2699 32.709 26.6086 32.7041C26.9473 32.6993 27.2782 32.8056 27.5506 33.0069C28.7381 33.89 30.295 34.425 31.9975 34.425C33.7 34.425 35.2563 33.89 36.4444 33.0069C36.7168 32.8056 37.0477 32.6993 37.3864 32.7041C37.7251 32.709 38.0528 32.8248 38.3194 33.0338C40.1083 34.4416 41.3761 36.4062 41.9219 38.6163Z" fill="white"/>
<path d="M32 32.3612C35.1719 32.3612 37.7431 29.79 37.7431 26.6181C37.7431 23.4463 35.1719 20.875 32 20.875C28.8282 20.875 26.2569 23.4463 26.2569 26.6181C26.2569 29.79 28.8282 32.3612 32 32.3612Z" fill="white"/>
</g>
<defs>
<clipPath id="clip0_476_1808">
<rect width="32" height="32" fill="white" transform="translate(16 16)"/>
</clipPath>
</defs>
</svg>
